<?xml version="1.0"?>
<svg xmlns="http://www.w3.org/2000/svg" viewBox="0 0 200 200" width="200" height="200" fill="#EFE9DD">
<path fill-rule="evenodd" d="M147.25,162.25 L148.77,161.00 L148.50,158.62 L121.92,78.00 L122.51,75.50 L128.50,70.11 L132.75,64.81 L135.23,60.50 L137.08,55.50 L138.48,48.50 L138.50,42.50 L137.69,37.00 L135.75,31.14 L131.60,24.00 L127.50,19.50 L120.75,14.25 L114.50,11.21 L107.50,9.16 L101.50,8.69 L92.25,9.12 L85.00,11.20 L76.14,16.00 L69.75,21.87 L65.25,28.14 L62.00,36.42 L61.14,40.50 L60.92,47.25 L62.80,56.75 L64.96,61.75 L67.23,65.50 L71.42,70.50 L76.86,75.25 L77.58,76.50 L77.68,78.00 L51.17,158.25 L50.81,161.00 L51.75,162.07 L53.50,162.43 L147.25,162.25Z M136.25,156.01 L63.75,156.05 L62.00,155.66 L60.52,154.00 L60.50,152.25 L80.56,88.75 L84.43,75.00 L83.75,73.81 L76.25,68.50 L72.00,63.80 L69.93,60.50 L66.84,52.75 L65.96,47.50 L66.04,42.00 L68.20,34.00 L70.88,28.75 L73.25,25.43 L76.36,22.25 L80.25,19.24 L86.25,16.01 L93.25,14.07 L100.50,13.62 L106.75,14.14 L113.50,16.07 L119.31,19.25 L125.21,24.25 L128.81,29.00 L131.46,34.25 L132.70,38.00 L133.69,44.00 L133.55,48.00 L131.75,55.84 L128.56,62.25 L125.50,66.24 L122.50,69.26 L115.56,74.00 L115.07,75.25 L139.06,152.25 L138.68,154.75 L136.25,156.01Z M100.21,74.50 L105.08,71.75 L111.12,67.50 L115.75,63.51 L119.50,59.19 L123.75,51.55 L125.23,45.50 L125.05,42.75 L124.00,42.37 L111.25,44.52 L98.75,45.09 L88.50,44.54 L74.73,42.50 L74.22,43.25 L74.18,45.25 L75.21,49.75 L77.90,55.75 L81.23,60.75 L85.09,64.75 L89.75,68.44 L96.00,72.72 L99.00,74.35 L100.21,74.50Z M116.50,52.31 L115.25,52.07 L114.56,51.25 L114.65,50.25 L115.50,49.54 L116.75,49.58 L117.62,50.50 L117.50,51.56 L116.50,52.31Z M129.03,149.75 L129.64,149.25 L129.74,148.25 L126.25,138.18 L118.00,134.62 L99.75,122.93 L83.25,133.60 L73.27,138.25 L69.82,148.75 L70.25,149.65 L71.00,149.85 L129.03,149.75Z M92.00,136.09 L91.00,136.06 L90.32,135.50 L90.20,134.50 L91.00,133.67 L91.75,133.62 L92.61,134.25 L92.61,135.50 L92.00,136.09Z M143.37,188.50 L144.03,188.00 L143.91,187.25 L141.00,186.86 L139.90,185.50 L139.71,177.75 L140.25,176.79 L143.50,176.66 L143.98,175.75 L143.25,175.02 L140.00,174.84 L139.81,171.50 L138.50,170.96 L137.99,171.50 L137.89,174.75 L136.00,175.14 L135.45,176.00 L136.00,176.64 L137.50,176.72 L137.99,177.25 L138.22,186.00 L139.29,187.75 L141.25,188.59 L143.37,188.50Z M60.27,188.75 L60.83,188.00 L60.78,178.75 L59.50,176.15 L56.00,175.15 L53.50,176.00 L51.50,177.35 L50.25,176.08 L48.25,175.20 L44.75,175.85 L43.50,176.84 L42.76,176.50 L42.25,175.21 L41.08,175.25 L41.25,188.64 L42.25,188.77 L42.81,188.25 L42.81,179.00 L44.25,177.50 L45.75,176.81 L48.00,176.75 L49.87,178.25 L50.00,188.25 L51.00,188.81 L51.85,188.00 L51.93,178.75 L54.25,176.94 L56.25,176.72 L57.75,177.02 L58.93,178.25 L59.00,188.25 L59.44,188.75 L60.27,188.75Z M100.28,188.75 L100.83,188.00 L100.78,178.75 L99.50,176.15 L96.00,175.15 L93.50,176.00 L91.50,177.35 L90.25,176.08 L88.25,175.20 L84.75,175.85 L83.50,176.84 L82.76,176.50 L82.25,175.21 L81.08,175.25 L81.25,188.64 L82.25,188.77 L82.81,188.25 L82.81,179.00 L84.25,177.50 L85.75,176.81 L88.00,176.75 L89.87,178.25 L90.00,188.25 L91.00,188.81 L91.85,188.00 L91.93,178.75 L94.25,176.94 L96.25,176.72 L97.75,177.02 L98.93,178.25 L99.00,188.25 L99.44,188.75 L100.28,188.75Z M132.31,188.75 L132.78,188.00 L132.67,179.25 L131.50,176.48 L128.00,175.09 L125.00,175.88 L123.25,176.85 L122.50,175.24 L121.25,175.10 L121.11,188.50 L122.00,188.81 L122.81,188.25 L122.95,178.75 L125.50,176.97 L128.00,176.72 L129.50,177.01 L130.88,178.75 L130.92,188.00 L131.25,188.64 L132.31,188.75Z M73.38,188.50 L75.50,188.03 L75.70,187.25 L69.50,186.83 L67.81,185.75 L66.78,184.00 L66.91,183.00 L67.50,182.71 L76.75,182.46 L76.63,179.50 L75.52,177.00 L74.25,175.92 L70.75,175.16 L68.00,176.17 L66.25,177.92 L65.26,180.50 L65.10,182.75 L66.14,186.00 L67.50,187.44 L70.50,188.53 L73.38,188.50Z M113.38,188.50 L115.50,188.03 L115.70,187.25 L109.50,186.83 L107.81,185.75 L106.78,184.00 L106.91,183.00 L107.50,182.71 L116.75,182.46 L116.63,179.50 L115.52,177.00 L114.25,175.92 L110.75,175.16 L108.00,176.17 L106.25,177.92 L105.26,180.50 L105.10,182.75 L106.14,186.00 L107.50,187.44 L110.50,188.53 L113.38,188.50Z M154.07,188.50 L156.75,187.56 L158.57,185.75 L159.53,183.00 L159.54,180.75 L158.55,178.00 L156.86,176.25 L154.12,175.25 L152.25,175.14 L149.25,176.06 L147.25,177.99 L146.22,180.75 L146.17,182.75 L147.07,185.50 L148.88,187.50 L152.00,188.58 L154.07,188.50Z M74.50,181.02 L67.50,181.02 L66.85,180.00 L67.88,178.25 L69.25,177.06 L72.25,176.74 L73.87,177.50 L74.74,178.75 L75.07,180.25 L74.50,181.02Z M114.50,181.02 L107.50,181.02 L106.85,180.00 L107.88,178.25 L109.25,177.06 L112.25,176.74 L113.87,177.50 L114.74,178.75 L115.07,180.25 L114.50,181.02Z M153.75,187.01 L150.50,186.71 L149.00,185.53 L147.98,183.75 L148.09,179.75 L149.25,178.00 L150.75,176.90 L155.00,176.92 L156.75,178.18 L157.75,180.00 L157.89,183.25 L157.01,185.25 L155.25,186.72 L153.75,187.01Z"></path>
<circle cx="99.50" cy="84.50" r="1.70"></circle><circle cx="99.50" cy="96.00" r="1.70"></circle><circle cx="99.33" cy="111.33" r="1.70"></circle>
</svg>